<?xml version="1.0" encoding="utf-8"?>
<!-- Generator: Adobe Illustrator 19.2.1, SVG Export Plug-In . SVG Version: 6.00 Build 0)  -->
<svg version="1.1" id="Layer_1" xmlns="http://www.w3.org/2000/svg" xmlns:xlink="http://www.w3.org/1999/xlink" x="0px" y="0px"
	 viewBox="0 0 512 512" style="enable-background:new 0 0 512 512;" xml:space="preserve">
<style type="text/css">
	.st0{fill:#4099FF;}
</style>
<g>
	<path class="st0" d="M438.4,135.3c-13.6,6-28.3,10.2-43.7,12c15.7-9.4,27.7-24.3,33.5-42.1c-14.7,8.7-31,15.1-48.4,18.4
		c-13.8-14.7-33.6-24-55.4-24c-41.9,0-76,34-76,76c0,6,0.7,11.8,1.9,17.3c-63.2-3.2-119.2-33.4-156.7-79.4
		c-6.6,11.2-10.3,24.3-10.3,38.2c0,26.3,13.5,49.6,33.8,63.2c-12.4-0.3-24.1-3.8-34.4-9.5v0.9c0,36.9,26.2,67.6,60.9,74.6
		c-6.3,1.7-13.1,2.6-20,2.6c-4.9,0-9.6-0.4-14.4-1.3c9.7,30.2,37.8,52.1,71,52.8c-26,20.4-58.8,32.5-94.4,32.5
		c-6.1,0-12.1-0.3-18.1-1c33.7,21.6,73.6,34.1,116.6,34.1c139.8,0,216.2-115.8,216.2-216.2l-0.2-9.8
		C415.3,163.9,428.2,150.6,438.4,135.3L438.4,135.3z M438.4,135.3"/>
</g>
</svg>
