<?xml version="1.0" encoding="utf-8"?>
<!-- Generator: Adobe Illustrator 19.2.1, SVG Export Plug-In . SVG Version: 6.00 Build 0)  -->
<svg version="1.1" id="Layer_1" xmlns="http://www.w3.org/2000/svg" xmlns:xlink="http://www.w3.org/1999/xlink" x="0px" y="0px"
	 viewBox="0 0 512 512" style="enable-background:new 0 0 512 512;" xml:space="preserve">
<style type="text/css">
	.st0{fill:#007BB5;}
</style>
<g>
	<path class="st0" d="M419.5,289.5v120.9h-70.1V297.6c0-28.3-10.1-47.7-35.5-47.7c-19.4,0-30.9,13-36,25.6
		c-1.8,4.5-2.3,10.8-2.3,17.1v117.8h-70.1c0,0,0.9-191.1,0-210.9h70.1v29.9c-0.1,0.2-0.3,0.5-0.5,0.7h0.5v-0.7
		c9.3-14.3,25.9-34.8,63.2-34.8C385,194.6,419.5,224.8,419.5,289.5L419.5,289.5z M132.1,97.9c-24,0-39.7,15.7-39.7,36.4
		c0,20.2,15.2,36.4,38.8,36.4h0.5c24.5,0,39.7-16.2,39.7-36.4C170.9,113.6,156.1,97.9,132.1,97.9L132.1,97.9z M96.6,410.5h70.1
		V199.6H96.6V410.5z M96.6,410.5"/>
</g>
</svg>
