<?xml version="1.0" encoding="utf-8"?>
<!-- Generator: Adobe Illustrator 19.2.1, SVG Export Plug-In . SVG Version: 6.00 Build 0)  -->
<svg version="1.1" id="Layer_1" xmlns="http://www.w3.org/2000/svg" xmlns:xlink="http://www.w3.org/1999/xlink" x="0px" y="0px"
	 viewBox="0 0 512 512" style="enable-background:new 0 0 512 512;" xml:space="preserve">
<style type="text/css">
	.st0{clip-path:url(#SVGID_2_);fill:#3B5998;}
</style>
<g>
	<g>
		<defs>
			<rect id="SVGID_1_" x="150.7" y="50" width="210.7" height="385.8"/>
		</defs>
		<clipPath id="SVGID_2_">
			<use xlink:href="#SVGID_1_"  style="overflow:visible;"/>
		</clipPath>
		<path class="st0" d="M351.4,49.6l-50-0.1c-56.2,0-92.5,37.3-92.5,94.9v43.8h-50.3c-4.3,0-7.9,3.5-7.9,7.9v63.4
			c0,4.3,3.5,7.9,7.9,7.9h50.3v160c0,4.3,3.5,7.9,7.9,7.9h65.6c4.3,0,7.9-3.5,7.9-7.9v-160H349c4.3,0,7.9-3.5,7.9-7.9l0-63.4
			c0-2.1-0.8-4.1-2.3-5.6c-1.5-1.5-3.5-2.3-5.6-2.3h-58.8v-37.1c0-17.8,4.3-26.9,27.5-26.9l33.7,0c4.3,0,7.9-3.5,7.9-7.9V57.5
			C359.2,53.1,355.7,49.6,351.4,49.6L351.4,49.6z M351.4,49.6"/>
	</g>
</g>
</svg>
