<?xml version="1.0" encoding="utf-8"?>
<!-- Generator: Adobe Illustrator 19.2.1, SVG Export Plug-In . SVG Version: 6.00 Build 0)  -->
<svg version="1.1" id="Layer_1" xmlns="http://www.w3.org/2000/svg" xmlns:xlink="http://www.w3.org/1999/xlink" x="0px" y="0px"
	 viewBox="0 0 512 512" style="enable-background:new 0 0 512 512;" xml:space="preserve">
<style type="text/css">
	.st0{clip-path:url(#SVGID_2_);}
</style>
<g>
	<g>
		<defs>
			<rect id="SVGID_1_" x="61.9" y="61.1" width="388.2" height="389.8"/>
		</defs>
		<clipPath id="SVGID_2_">
			<use xlink:href="#SVGID_1_"  style="overflow:visible;"/>
		</clipPath>
		<path class="st0" d="M111.8,60.7h288.9c27.4,0,49.9,22.4,49.9,49.9v288.9c0,27.4-22.4,49.9-49.9,49.9H111.8
			c-27.4,0-49.9-22.4-49.9-49.9V110.6C61.9,83.2,84.3,60.7,111.8,60.7L111.8,60.7z M345,103.9c-9.6,0-17.5,7.9-17.5,17.5v41.9
			c0,9.6,7.9,17.5,17.5,17.5h43.9c9.6,0,17.5-7.9,17.5-17.5v-41.9c0-9.6-7.9-17.5-17.5-17.5H345z M406.6,225.1h-34.2
			c3.2,10.6,5,21.8,5,33.4c0,64.6-54.1,117-120.8,117c-66.7,0-120.8-52.4-120.8-117c0-11.6,1.8-22.8,5-33.4h-35.7v164.2
			c0,8.5,6.9,15.4,15.4,15.4h270.6c8.5,0,15.4-6.9,15.4-15.4V225.1z M256.6,178.6c-43.1,0-78,33.8-78,75.6c0,41.7,34.9,75.6,78,75.6
			c43.1,0,78.1-33.9,78.1-75.6C334.6,212.4,299.7,178.6,256.6,178.6L256.6,178.6z M256.6,178.6"/>
	</g>
</g>
</svg>
