<?xml version="1.0" encoding="utf-8"?>
<!-- Generator: Adobe Illustrator 19.2.1, SVG Export Plug-In . SVG Version: 6.00 Build 0)  -->
<svg version="1.1" id="Layer_1" xmlns="http://www.w3.org/2000/svg" xmlns:xlink="http://www.w3.org/1999/xlink" x="0px" y="0px"
	 viewBox="0 0 44 40" style="enable-background:new 0 0 44 40;" xml:space="preserve">
<style type="text/css">
	.st0{fill:#B3B5B8;}
</style>
<path class="st0" d="M14,27V14.7c0,0-0.3-4.7,4.7-4.7c5,0,10.6,0,10.6,0l7.7-9H18.1c0,0-10.8-0.6-13.3,12.2c-0.1,12.5,0,24.2,0,24.2
	L14,27z"/>
<path class="st0" d="M30.1,13v12.3c0,0,0.3,4.7-4.7,4.7c-5,0-10.6,0-10.6,0l-7.7,9H26c0,0,10.8,0.6,13.3-12.2
	c0.1-12.5,0-24.2,0-24.2L30.1,13z"/>
</svg>
